<?xml version="1.0" encoding="utf-8"?>
<!-- Generator: Adobe Illustrator 21.0.0, SVG Export Plug-In . SVG Version: 6.00 Build 0)  -->
<svg version="1.1" id="Layer_1" xmlns="http://www.w3.org/2000/svg" xmlns:xlink="http://www.w3.org/1999/xlink" x="0px" y="0px"
	 viewBox="0 0 44 44" style="enable-background:new 0 0 44 44;" xml:space="preserve">
<path d="M22,44C9.9,44,0,34.1,0,22S9.9,0,22,0s22,9.9,22,22S34.1,44,22,44z M22,1.9c-11.1,0-20.1,9-20.1,20.1s9,20.1,20.1,20.1
	s20.1-9,20.1-20.1S33.1,1.9,22,1.9z"/>
<g>
	<path d="M22.1,31.4l-8.1-8.1c-0.4-0.4-0.4-1,0-1.4c0.4-0.4,1-0.4,1.4,0l6.7,6.7l6.4-6.4c0.4-0.4,1-0.4,1.4,0s0.4,1,0,1.4L22.1,31.4
		z"/>
	<path d="M22.1,31c-0.5,0-1-0.4-1-1V14.6c0-0.5,0.4-1,1-1c0.5,0,1,0.4,1,1V30C23.1,30.5,22.7,31,22.1,31z"/>
</g>
</svg>
